<?xml version="1.0" encoding="utf-8"?>
<!-- Generator: Adobe Illustrator 24.3.0, SVG Export Plug-In . SVG Version: 6.00 Build 0)  -->
<svg version="1.0" id="Layer_1" xmlns="http://www.w3.org/2000/svg" xmlns:xlink="http://www.w3.org/1999/xlink" x="0px" y="0px"
	 viewBox="0 0 1200 1200" style="enable-background:new 0 0 1200 1200;" xml:space="preserve">
<style type="text/css">
	.st0{fill:#EB2127;}
	.st1{fill:#2A3C90;}
</style>
<path class="st1" d="M236.56,528.28c-8.85-8.78-19.18-15.71-30.98-20.79c-11.8-5.08-24.43-7.62-37.88-7.62
	c-13.45,0-26.14,2.57-38.08,7.72c-11.94,5.15-22.37,12.15-31.29,21c-8.92,8.85-15.95,19.25-21.1,31.19
	c-5.15,11.94-7.72,24.7-7.72,38.29c0,13.59,2.57,26.32,7.72,38.19c5.15,11.87,12.18,22.27,21.1,31.19
	c8.92,8.92,19.35,15.95,31.29,21.1c11.94,5.15,24.63,7.72,38.08,7.72c11.94,0,23.16-2.3,33.66-6.9c10.5-4.6,20-10.67,28.51-18.22
	l0.21,4.32c0,5.08,1.61,9.4,4.84,12.97c3.22,3.57,7.37,5.35,12.45,5.35c5.21,0,9.57-1.78,13.07-5.35c3.5-3.57,5.25-7.89,5.25-12.97
	v-77.4v-1.03c-0.14-13.45-2.81-26.07-8.03-37.88C252.44,547.36,245.41,537.06,236.56,528.28z M225.24,622.25
	c-3.23,7.62-7.65,14.27-13.28,19.97c-5.63,5.7-12.22,10.23-19.76,13.59c-7.55,3.36-15.72,5.04-24.5,5.04
	c-8.65,0-16.81-1.68-24.5-5.04c-7.69-3.36-14.34-7.89-19.97-13.59c-5.63-5.69-10.09-12.35-13.38-19.97
	c-3.29-7.62-4.94-15.68-4.94-24.19c0-8.65,1.65-16.78,4.94-24.39c3.29-7.62,7.79-14.24,13.48-19.86
	c5.69-5.63,12.35-10.09,19.97-13.38c7.62-3.29,15.75-4.94,24.39-4.94c8.78,0,16.95,1.65,24.5,4.94c7.55,3.29,14.13,7.75,19.76,13.38
	c5.63,5.63,10.05,12.25,13.28,19.86c3.22,7.62,4.84,15.75,4.84,24.39C230.07,606.57,228.46,614.63,225.24,622.25z"/>
<path class="st1" d="M900.5,528.59c-8.85-8.85-19.22-15.85-31.08-21c-11.87-5.15-24.6-7.72-38.19-7.72
	c-13.45,0-26.14,2.57-38.08,7.72c-11.94,5.15-22.37,12.15-31.29,21c-8.92,8.85-15.95,19.25-21.1,31.19
	c-5.15,11.94-7.72,24.7-7.72,38.29c0,13.59,2.57,26.32,7.72,38.19c5.15,11.87,12.18,22.27,21.1,31.19
	c8.92,8.92,19.35,15.95,31.29,21.1c11.94,5.15,24.63,7.72,38.08,7.72c13.59,0,26.31-2.57,38.19-7.72
	c11.87-5.15,22.23-12.18,31.08-21.1c8.85-8.92,15.85-19.31,21-31.19c5.15-11.87,7.72-24.6,7.72-38.19c0-13.59-2.57-26.35-7.72-38.29
	C916.35,547.83,909.35,537.44,900.5,528.59z M888.76,622.25c-3.23,7.62-7.65,14.27-13.28,19.97c-5.63,5.7-12.22,10.23-19.76,13.59
	c-7.55,3.36-15.72,5.04-24.5,5.04c-8.65,0-16.81-1.68-24.5-5.04c-7.69-3.36-14.34-7.89-19.97-13.59
	c-5.63-5.69-10.09-12.35-13.38-19.97c-3.29-7.62-4.94-15.68-4.94-24.19c0-8.65,1.65-16.78,4.94-24.39
	c3.29-7.62,7.79-14.24,13.48-19.86c5.69-5.63,12.35-10.09,19.97-13.38c7.62-3.29,15.75-4.94,24.39-4.94c8.78,0,16.95,1.65,24.5,4.94
	c7.55,3.29,14.13,7.75,19.76,13.38c5.63,5.63,10.05,12.25,13.28,19.86c3.22,7.62,4.84,15.75,4.84,24.39
	C893.6,606.57,891.99,614.63,888.76,622.25z"/>
<path class="st1" d="M1121.76,557.54c-4.53-11.62-10.84-21.75-18.94-30.38c-8.1-8.63-17.7-15.45-28.82-20.46
	c-11.12-5.01-23.19-7.52-36.23-7.52c-13.04,0-25.18,2.51-36.43,7.52c-11.25,5.01-21,11.83-29.23,20.46
	c-8.23,8.63-14.69,18.76-19.35,30.38c-4.67,11.62-7,24.05-7,37.27v0.21v0.63v82.69c0,2.51,0.48,4.87,1.44,7.1
	c0.96,2.23,2.26,4.11,3.91,5.64c1.65,1.53,3.57,2.75,5.76,3.65c2.19,0.91,4.53,1.36,7,1.36c4.94,0,9.06-1.67,12.35-5.01
	c3.29-3.34,4.94-7.59,4.94-12.74v-83.31c0-8.35,1.4-16.18,4.22-23.49c2.81-7.31,6.76-13.64,11.84-19
	c5.08-5.36,11.04-9.57,17.91-12.63c6.86-3.06,14.41-4.59,22.64-4.59c8.1,0,15.54,1.6,22.33,4.8c6.79,3.2,12.62,7.52,17.5,12.95
	c4.87,5.43,8.68,11.8,11.42,19.11c2.74,7.31,4.12,15.14,4.12,23.49v0.21v82.48c0,5.15,1.78,9.4,5.35,12.74
	c3.57,3.34,7.82,5.01,12.76,5.01c4.94,0,9.06-1.67,12.35-5.01s4.94-7.59,4.94-12.74v-82.06v-0.42v-0.63v-0.42
	C1128.55,581.59,1126.29,569.16,1121.76,557.54z"/>
<circle class="st1" cx="166.73" cy="598.23" r="33.78"/>
<circle class="st1" cx="830.43" cy="598.06" r="33.78"/>
<path class="st1" d="M403.49,657.45c-6.59,2.26-13.79,3.4-21.61,3.4c-8.78,0-16.98-1.58-24.6-4.74
	c-7.62-3.15-14.27-7.48-19.97-12.97c-5.7-5.49-10.19-11.97-13.48-19.45c-3.29-7.48-4.94-15.47-4.94-23.98v-61.75h80.69
	c2.47,0,4.8-0.48,7-1.44c2.19-0.96,4.12-2.23,5.76-3.81c1.65-1.58,2.91-3.43,3.81-5.56c0.89-2.13,1.34-4.43,1.34-6.9
	c0-2.47-0.48-4.77-1.44-6.9c-0.96-2.13-2.23-4.01-3.81-5.66c-1.58-1.65-3.47-2.95-5.66-3.91c-2.2-0.96-4.53-1.44-7-1.44h-80.69
	V458.7c0-2.6-0.45-5.01-1.34-7.2c-0.89-2.19-2.13-4.12-3.71-5.76c-1.58-1.65-3.43-2.95-5.56-3.91c-2.13-0.96-4.43-1.44-6.9-1.44
	c-4.94,0-9.16,1.79-12.66,5.35c-3.5,3.57-5.25,7.89-5.25,12.97V599.3c0,13.59,2.57,26.28,7.72,38.08c5.15,11.8,12.15,22.06,21,30.77
	c8.85,8.72,19.28,15.58,31.29,20.59c12.01,5.01,24.8,7.51,38.39,7.51c12.35,0,23.91-2.03,34.69-6.07
	c9.21-3.46,17.53-8.36,24.99-14.68c-9.37-9.02-16.47-19.76-21.05-27.81C415.1,652.15,409.44,655.4,403.49,657.45z"/>
<path class="st1" d="M727.39,452.54c-3.5-3.43-7.79-5.15-12.87-5.15c-8.92,0-17.29,1.72-25.11,5.15
	c-7.82,3.43-14.62,8.13-20.38,14.1c-5.76,5.97-10.29,12.9-13.59,20.79c-3.09,7.4-4.71,15.25-4.9,23.55
	c-0.01,0.28-0.04,0.56-0.04,0.84v29.44h-15.03c-4.94,0-9.13,1.72-12.56,5.15c-3.43,3.43-5.15,7.62-5.15,12.56
	c0,4.94,1.72,9.16,5.15,12.66c3.43,3.5,7.62,5.25,12.56,5.25h15.03v34.05v14.1v69.59c0,2.61,0.48,5.01,1.44,7.2
	c0.96,2.2,2.26,4.12,3.91,5.76c1.65,1.65,3.53,2.92,5.66,3.81c2.13,0.89,4.43,1.34,6.9,1.34c2.47,0,4.77-0.44,6.9-1.34
	c2.13-0.89,3.98-2.16,5.56-3.81c1.58-1.65,2.85-3.57,3.81-5.76c0.96-2.19,1.44-4.6,1.44-7.2v-70.94v-11.41v-35.4h20.17
	c5.08,0,9.33-1.71,12.76-5.15c3.43-3.43,5.15-7.68,5.15-12.76c0-4.94-1.72-9.13-5.15-12.56c-3.43-3.43-7.69-5.15-12.76-5.15h-20.17
	v-28.82v-0.62v-0.62c0.13-3.71,0.93-7.24,2.37-10.6c1.44-3.36,3.4-6.35,5.87-8.95c2.47-2.61,5.35-4.66,8.65-6.18
	c3.29-1.51,6.86-2.33,10.7-2.47h0.82c2.47,0,4.8-0.44,7-1.34c2.19-0.89,4.12-2.13,5.76-3.7c1.65-1.58,2.95-3.43,3.91-5.56
	c0.96-2.13,1.44-4.43,1.44-6.9C732.64,460.29,730.89,455.97,727.39,452.54z"/>
<path class="st1" d="M606.96,559.77c-5.15-11.94-12.14-22.34-21-31.19c-8.85-8.85-19.22-15.85-31.08-21
	c-11.87-5.15-24.6-7.72-38.19-7.72c-13.45,0-26.14,2.57-38.08,7.72c-11.94,5.15-22.37,12.15-31.29,21
	c-8.92,8.85-15.95,19.25-21.1,31.19c-5.15,11.94-7.72,24.7-7.72,38.29c0,13.59,2.57,26.32,7.72,38.19
	c5.15,11.87,12.18,22.27,21.1,31.19c8.92,8.92,19.35,15.95,31.29,21.1c11.94,5.15,24.63,7.72,38.08,7.72
	c13.59,0,26.31-2.57,38.19-7.72c11.87-5.15,22.23-12.18,31.08-21.1c8.85-8.92,15.85-19.31,21-31.19c3.96-9.12,6.39-18.76,7.3-28.89
	l0.16-16.65C613.66,579.84,611.17,569.53,606.96,559.77z M578.17,608.71c-0.79,4.66-2.09,9.17-3.94,13.53
	c-3.23,7.62-7.65,14.27-13.28,19.97c-5.63,5.7-12.22,10.23-19.76,13.59c-7.55,3.36-15.72,5.04-24.5,5.04
	c-8.65,0-16.81-1.68-24.5-5.04c-7.69-3.36-14.34-7.89-19.97-13.59c-5.63-5.69-10.09-12.35-13.38-19.97
	c-1.26-2.91-2.27-5.88-3.05-8.91c-1.26-4.92-1.89-10.01-1.89-15.27c0-4.6,0.48-9.06,1.42-13.37c0.82-3.79,1.98-7.46,3.52-11.03
	c3.29-7.62,7.79-14.24,13.48-19.86c5.69-5.63,12.35-10.09,19.97-13.38c7.62-3.29,15.75-4.94,24.39-4.94c8.78,0,16.95,1.65,24.5,4.94
	c7.55,3.29,14.13,7.75,19.76,13.38c5.63,5.63,10.05,12.25,13.28,19.86c2.12,5,3.53,10.23,4.25,15.68
	C578.87,589.63,581.12,598.61,578.17,608.71z"/>
<path class="st0" d="M840.14,489.26c0,0-132.59-197.34-338.53,0h34.22h9.77c0,0,33.83-34.2,88.51-50.38
	C690.89,423.21,765.66,424.32,840.14,489.26z"/>
<ellipse class="st1" cx="833.33" cy="480.72" rx="15.64" ry="15.24"/>
</svg>
